<svg width="46" height="31" viewBox="0 0 46 31" fill="none" xmlns="http://www.w3.org/2000/svg">
<path fill-rule="evenodd" clip-rule="evenodd" d="M0.987427 15.7986V30.8287H5.6669H10.3464L10.3547 23.3955L10.363 15.9622L14.6058 20.7199L18.8486 25.4776L18.8487 28.1532L18.8488 30.8287H23.4624H28.076V25.9213V21.014L18.8401 10.8997L9.60411 0.785473L5.29577 0.776951L0.987427 0.768463V15.7986ZM14.5317 0.782889C14.5317 0.790673 19.5219 6.31947 25.6209 13.0691L36.7101 25.3411V28.0849V30.8287H41.3402H45.9704V25.7353V20.6419L42.1559 16.563C40.0579 14.3196 35.8797 9.84921 32.8709 6.62889L27.4005 0.773764L20.9661 0.771214C17.4272 0.769839 14.5317 0.775072 14.5317 0.782889Z" fill="#CF6837"/>
</svg>
